<svg xmlns="http://www.w3.org/2000/svg" xmlns:xlink="http://www.w3.org/1999/xlink" width="500" zoomAndPan="magnify" viewBox="0 0 375 374.999991" height="500" preserveAspectRatio="xMidYMid meet" version="1.0"><defs><g/><clipPath id="12dc27505c"><path d="M 68.117188 68.117188 L 306.882812 68.117188 L 306.882812 306.882812 L 68.117188 306.882812 Z M 68.117188 68.117188 " clip-rule="nonzero"/></clipPath><clipPath id="175be44acf"><path d="M 187.5 68.117188 C 121.566406 68.117188 68.117188 121.566406 68.117188 187.5 C 68.117188 253.433594 121.566406 306.882812 187.5 306.882812 C 253.433594 306.882812 306.882812 253.433594 306.882812 187.5 C 306.882812 121.566406 253.433594 68.117188 187.5 68.117188 " clip-rule="nonzero"/></clipPath><clipPath id="6ee6cc58cf"><path d="M 68.117188 68.117188 L 306.617188 68.117188 L 306.617188 306.617188 L 68.117188 306.617188 Z M 68.117188 68.117188 " clip-rule="nonzero"/></clipPath><clipPath id="77b86a1af3"><path d="M 187.367188 68.117188 C 121.503906 68.117188 68.117188 121.503906 68.117188 187.367188 C 68.117188 253.226562 121.503906 306.617188 187.367188 306.617188 C 253.226562 306.617188 306.617188 253.226562 306.617188 187.367188 C 306.617188 121.503906 253.226562 68.117188 187.367188 68.117188 " clip-rule="nonzero"/></clipPath><clipPath id="43652b5c9d"><path d="M 117.324219 117.324219 L 257.574219 117.324219 L 257.574219 257.574219 L 117.324219 257.574219 Z M 117.324219 117.324219 " clip-rule="nonzero"/></clipPath></defs><g clip-path="url(#12dc27505c)"><g clip-path="url(#175be44acf)"><path fill="#ffffff" d="M 68.117188 68.117188 L 306.882812 68.117188 L 306.882812 306.882812 L 68.117188 306.882812 Z M 68.117188 68.117188 " fill-opacity="1" fill-rule="nonzero"/></g></g><g clip-path="url(#6ee6cc58cf)"><g clip-path="url(#77b86a1af3)"><path stroke-linecap="butt" transform="matrix(0.74919, 0, 0, 0.74919, 68.115454, 68.115449)" fill="none" stroke-linejoin="miter" d="M 159.17421 0.00232034 C 71.261562 0.00232034 0.00231433 71.261568 0.00231433 159.174216 C 0.00231433 247.081651 71.261562 318.346112 159.17421 318.346112 C 247.081645 318.346112 318.346106 247.081651 318.346106 159.174216 C 318.346106 71.261568 247.081645 0.00232034 159.17421 0.00232034 " stroke="#000000" stroke-width="6" stroke-opacity="1" stroke-miterlimit="4"/></g></g><g fill="#000000" fill-opacity="1"><g transform="translate(127.56764, 123.425126)"><g><path d="M 19.304688 -12.628906 C 19.304688 -12.628906 17.492188 -12.296875 15.476562 -13.527344 L 2.875 -22.375 L 1.117188 -23.617188 L -2.988281 -20.929688 L -2.558594 -18.820312 L 0.519531 -3.710938 C 0.824219 -1.390625 -0.183594 0.121094 -0.183594 0.121094 L 1.125 -0.734375 L 1.136719 -0.710938 L 3.042969 -1.957031 L 3.027344 -1.980469 L 5.386719 -3.523438 C 5.386719 -3.523438 2.722656 -3.648438 2.480469 -4.667969 L 1.5625 -9.171875 L 10.089844 -14.753906 L 13.8125 -12.113281 C 14.699219 -11.515625 13.710938 -8.96875 13.710938 -8.96875 L 16.09375 -10.527344 L 16.109375 -10.507812 L 18.011719 -11.75 L 17.996094 -11.773438 Z M 1.132812 -11.28125 L -0.652344 -20.066406 L 0.996094 -21.148438 L 8.332031 -15.992188 Z M 1.132812 -11.28125 "/></g></g></g><g fill="#000000" fill-opacity="1"><g transform="translate(147.754113, 110.646452)"><g><path d="M 6.632812 -22.328125 L 6.625 -22.355469 L -5.222656 -18.472656 C -5.222656 -18.472656 -3.671875 -18.054688 -3.101562 -16.3125 L 1.269531 -2.984375 C 1.78125 -1.421875 0.753906 -0.246094 0.753906 -0.246094 L 5.3125 -1.742188 C 5.3125 -1.742188 3.789062 -2.078125 3.273438 -3.640625 L 1.585938 -8.792969 L 10.148438 -11.605469 C 13.066406 -12.558594 14.726562 -15.496094 13.640625 -18.804688 C 12.6875 -21.71875 9.546875 -23.285156 6.632812 -22.328125 Z M 8.796875 -13.265625 L 0.960938 -10.695312 L -0.710938 -15.796875 C -1.035156 -16.789062 -0.476562 -17.894531 0.539062 -18.226562 L 6.789062 -20.273438 C 9.15625 -21.050781 11.5 -19.800781 11.839844 -17.175781 C 12.039062 -15.511719 10.59375 -13.855469 8.796875 -13.265625 Z M 8.796875 -13.265625 "/></g></g></g><g fill="#000000" fill-opacity="1"><g transform="translate(167.317986, 104.2384)"><g><path d="M 18.363281 -17.871094 C 18.257812 -19.566406 19.550781 -20.417969 19.550781 -20.417969 L 14.765625 -20.121094 C 14.765625 -20.121094 16.148438 -19.492188 16.257812 -17.742188 L 16.625 -11.78125 L 3.578125 -10.980469 L 3.214844 -16.941406 C 3.09375 -18.882812 4.402344 -19.484375 4.402344 -19.484375 L -0.382812 -19.191406 C -0.382812 -19.191406 1 -18.5625 1.109375 -16.8125 L 1.984375 -2.566406 C 2.074219 -1.0625 0.792969 -0.046875 0.792969 -0.046875 L 5.578125 -0.34375 C 5.578125 -0.34375 4.183594 -1.164062 4.089844 -2.695312 L 3.703125 -8.984375 L 16.746094 -9.785156 L 17.132812 -3.496094 C 17.226562 -1.964844 15.941406 -0.980469 15.941406 -0.980469 L 20.726562 -1.273438 C 20.726562 -1.273438 19.332031 -2.09375 19.238281 -3.625 Z M 18.363281 -17.871094 "/></g></g></g><g fill="#000000" fill-opacity="1"><g transform="translate(189.8915, 103.003761)"><g><path d="M 17.082031 -0.210938 L 14.746094 -5.003906 C 17.679688 -4.453125 20.496094 -6.164062 21.191406 -9.519531 C 21.8125 -12.523438 19.871094 -15.441406 16.867188 -16.066406 L 16.875 -16.089844 L 4.667969 -18.617188 C 4.667969 -18.617188 5.804688 -17.488281 5.429688 -15.691406 L 2.585938 -1.953125 C 2.253906 -0.34375 0.777344 0.160156 0.777344 0.160156 L 5.472656 1.132812 C 5.472656 1.132812 4.320312 0.0820312 4.652344 -1.527344 L 5.753906 -6.839844 L 12.273438 -5.488281 L 15.066406 0.210938 C 16.066406 2.261719 18.429688 3.816406 20.65625 4.277344 L 20.867188 3.257812 C 19.179688 2.90625 17.824219 1.339844 17.082031 -0.210938 Z M 7.246094 -14.054688 C 7.457031 -15.074219 8.492188 -15.757812 9.539062 -15.539062 L 15.980469 -14.207031 C 18.421875 -13.699219 19.828125 -11.449219 18.820312 -9.003906 C 18.164062 -7.460938 16.085938 -6.742188 14.234375 -7.125 L 6.15625 -8.796875 Z M 7.246094 -14.054688 "/></g></g></g><g fill="#000000" fill-opacity="1"><g transform="translate(212.145945, 108.459773)"><g><path d="M 10.25 -13.867188 C 10.941406 -15.566406 12.421875 -15.644531 12.421875 -15.644531 L 7.984375 -17.457031 C 7.984375 -17.457031 8.917969 -16.1875 8.296875 -14.664062 L 2.898438 -1.449219 C 2.277344 0.0703125 0.734375 0.300781 0.734375 0.300781 L 5.175781 2.113281 C 5.175781 2.113281 4.230469 0.871094 4.851562 -0.652344 Z M 10.25 -13.867188 "/></g></g></g><g fill="#000000" fill-opacity="1"><g transform="translate(219.811459, 110.902148)"><g><path d="M 19.304688 12.628906 C 19.304688 12.628906 18.273438 11.101562 18.59375 8.757812 L 21.65625 -6.328125 L 22.085938 -8.4375 L 17.980469 -11.121094 L 16.222656 -9.882812 L 3.609375 -1.011719 C 1.605469 0.199219 -0.183594 -0.121094 -0.183594 -0.121094 L 1.125 0.734375 L 1.109375 0.757812 L 3.011719 2.003906 L 3.027344 1.980469 L 5.386719 3.523438 C 5.386719 3.523438 4.429688 1.03125 5.269531 0.402344 L 9.03125 -2.246094 L 17.558594 3.335938 L 16.632812 7.804688 C 16.4375 8.855469 13.710938 8.96875 13.710938 8.96875 L 16.09375 10.527344 L 16.078125 10.550781 L 17.984375 11.796875 L 17.996094 11.773438 Z M 10.789062 -3.484375 L 18.125 -8.636719 L 19.773438 -7.558594 L 17.988281 1.226562 Z M 10.789062 -3.484375 "/></g></g></g><g fill="#000000" fill-opacity="1"><g transform="translate(87.172055, 186.53477)"><g><path d="M 20.082031 14.734375 L 19.191406 -0.335938 C 19.191406 -0.335938 18.203125 1.066406 16.808594 1.148438 L 2.558594 1.988281 C 0.972656 2.082031 0.046875 0.792969 0.046875 0.792969 L 0.328125 5.578125 C 0.328125 5.578125 1.070312 4.191406 2.683594 4.097656 L 8.972656 3.726562 L 9.351562 10.097656 C 9.425781 11.410156 8.101562 12.203125 8.101562 12.203125 L 12.777344 11.925781 C 12.777344 11.925781 11.417969 11.210938 11.347656 9.980469 L 10.972656 3.605469 L 15.429688 3.34375 C 16.523438 3.28125 17.421875 4.078125 17.484375 5.144531 L 17.945312 12.9375 C 18 13.921875 15.007812 16.214844 15.007812 16.214844 Z M 20.082031 14.734375 "/></g></g></g><g fill="#000000" fill-opacity="1"><g transform="translate(89.266067, 208.31216)"><g><path d="M 17.238281 0.476562 C 19.027344 0.0742188 19.9375 1.246094 19.9375 1.246094 L 18.886719 -3.433594 C 18.886719 -3.433594 18.378906 -1.941406 16.773438 -1.582031 L 2.847656 1.550781 C 1.242188 1.910156 0.175781 0.773438 0.175781 0.773438 L 1.226562 5.453125 C 1.226562 5.453125 1.707031 3.96875 3.3125 3.609375 Z M 17.238281 0.476562 "/></g></g></g><g fill="#000000" fill-opacity="1"><g transform="translate(91.425038, 219.25706)"><g><path d="M 24.164062 7.589844 C 24.164062 7.589844 24.054688 9.128906 22.472656 9.816406 L 8.972656 15.667969 L 8.527344 14.636719 L 20.316406 -1.28125 L 18.433594 -5.632812 L 3.097656 1.015625 C 1.566406 1.679688 0.300781 0.765625 0.300781 0.765625 L 2.207031 5.164062 C 2.207031 5.164062 2.453125 3.59375 3.9375 2.953125 L 17.4375 -2.898438 L 18.011719 -1.566406 L 6.222656 14.351562 L 7.964844 18.375 L 23.300781 11.726562 C 24.882812 11.042969 26.082031 12.015625 26.082031 12.015625 Z M 24.164062 7.589844 "/></g></g></g><g fill="#000000" fill-opacity="1"><g transform="translate(103.119499, 244.219978)"><g><path d="M 21.210938 -4.164062 L 15.46875 -11.324219 C 15.46875 -11.324219 15.667969 -9.761719 14.40625 -8.75 L 3.292969 0.167969 C 1.96875 1.230469 0.511719 0.679688 0.511719 0.679688 L 6.460938 8.09375 C 9.90625 12.390625 15.78125 13.1875 20.589844 9.332031 C 24.566406 6.140625 24.417969 -0.167969 21.210938 -4.164062 Z M 8.042969 6.824219 L 5.46875 3.621094 C 4.800781 2.785156 4.9375 1.554688 5.769531 0.886719 L 14.488281 -6.109375 C 15.363281 -6.8125 16.632812 -6.675781 17.335938 -5.796875 L 19.859375 -2.65625 C 22.617188 0.785156 21.980469 5.546875 18.796875 8.101562 C 15.71875 10.570312 10.800781 10.265625 8.042969 6.824219 Z M 8.042969 6.824219 "/></g></g></g><g fill="#000000" fill-opacity="1"><g transform="translate(120.059744, 263.625227)"><g/></g></g><g fill="#000000" fill-opacity="1"><g transform="translate(129.85575, 271.986362)"><g><path d="M 21.324219 -9.796875 C 21.324219 -9.796875 22.023438 -8.378906 20.414062 -7.507812 L 12.6875 -3.394531 L 12.417969 -12.125 C 12.34375 -13.972656 13.945312 -14.058594 13.945312 -14.058594 L 9.34375 -16.71875 C 9.34375 -16.71875 10.566406 -15 10.617188 -13.167969 L 10.988281 -2.480469 L 8.382812 2.027344 C 7.601562 3.378906 5.964844 3.476562 5.964844 3.476562 L 10.117188 5.875 C 10.117188 5.875 9.382812 4.410156 10.164062 3.054688 L 12.765625 -1.449219 L 22.214844 -6.464844 C 23.828125 -7.335938 25.925781 -7.136719 25.925781 -7.136719 Z M 21.324219 -9.796875 "/></g></g></g><g fill="#000000" fill-opacity="1"><g transform="translate(150.806142, 283.562363)"><g><path d="M 15.253906 -13.875 C 19.636719 -12.660156 22 -8.164062 20.878906 -4.125 C 19.78125 -0.164062 15.421875 2.519531 11.039062 1.304688 C 6.632812 0.078125 4.308594 -4.460938 5.410156 -8.421875 C 6.53125 -12.460938 10.875 -15.09375 15.253906 -13.875 Z M 3.402344 -8.980469 C 1.945312 -3.726562 5.25 1.769531 10.503906 3.230469 C 15.757812 4.6875 21.425781 1.683594 22.886719 -3.570312 C 24.34375 -8.820312 21.042969 -14.34375 15.789062 -15.804688 C 10.539062 -17.261719 4.863281 -14.230469 3.402344 -8.980469 Z M 3.402344 -8.980469 "/></g></g></g><g fill="#000000" fill-opacity="1"><g transform="translate(177.422462, 290.159306)"><g><path d="M 16.152344 -19.140625 C 16.152344 -19.140625 17.519531 -18.453125 17.515625 -16.671875 L 17.496094 -8.152344 C 17.488281 -3.550781 15.621094 -1.664062 10.714844 -1.675781 C 5.839844 -1.6875 4.007812 -3.582031 4.019531 -8.183594 L 4.035156 -16.703125 C 4.039062 -18.320312 5.386719 -19.167969 5.386719 -19.167969 L 0.589844 -19.175781 C 0.589844 -19.175781 1.929688 -18.460938 1.925781 -16.707031 L 1.910156 -8.296875 C 1.894531 -1.503906 5.972656 0.316406 10.738281 0.324219 C 15.480469 0.335938 19.566406 -1.464844 19.582031 -8.257812 L 19.597656 -16.667969 C 19.601562 -18.449219 20.972656 -19.132812 20.972656 -19.132812 Z M 16.152344 -19.140625 "/></g></g></g><g fill="#000000" fill-opacity="1"><g transform="translate(204.312292, 289.489955)"><g><path d="M 15.15625 -7.882812 L 10.914062 -11.109375 C 13.78125 -11.9375 15.527344 -14.734375 14.636719 -18.039062 C 13.839844 -21.003906 10.792969 -22.734375 7.828125 -21.9375 L 7.820312 -21.964844 L -4.214844 -18.726562 C -4.214844 -18.726562 -2.691406 -18.226562 -2.214844 -16.457031 L 1.429688 -2.910156 C 1.855469 -1.324219 0.765625 -0.207031 0.765625 -0.207031 L 5.398438 -1.453125 C 5.398438 -1.453125 3.894531 -1.871094 3.46875 -3.457031 L 2.058594 -8.695312 L 8.484375 -10.425781 L 13.546875 -6.597656 C 15.363281 -5.214844 18.175781 -4.890625 20.371094 -5.480469 L 20.101562 -6.488281 C 18.433594 -6.039062 16.519531 -6.828125 15.15625 -7.882812 Z M 0.140625 -15.8125 C -0.128906 -16.820312 0.492188 -17.894531 1.523438 -18.171875 L 7.871094 -19.878906 C 10.277344 -20.527344 12.550781 -19.152344 12.75 -16.511719 C 12.859375 -14.839844 11.328125 -13.261719 9.5 -12.769531 L 1.539062 -10.628906 Z M 0.140625 -15.8125 "/></g></g></g><g fill="#000000" fill-opacity="1"><g transform="translate(229.156974, 281.676086)"><g/></g></g><g fill="#000000" fill-opacity="1"><g transform="translate(241.606257, 276.316693)"><g><path d="M 18.703125 -15.605469 L 22.398438 -18.699219 C 22.398438 -18.699219 20.925781 -18.324219 19.765625 -19.710938 L 9.046875 -32.53125 L 5.285156 -29.382812 L 11.03125 -11.832031 L 9.394531 -10.464844 L -6.863281 -19.226562 L -10.625 -16.078125 L 0.0976562 -3.257812 C 1.0625 -2.101562 0.648438 -0.507812 0.648438 -0.507812 L 4.324219 -3.582031 C 4.324219 -3.582031 2.75 -3.371094 1.714844 -4.613281 L -7.722656 -15.898438 L -6.671875 -16.777344 L 9.601562 -7.992188 L 13.410156 -11.214844 L 7.660156 -28.765625 L 8.710938 -29.644531 L 18.148438 -18.355469 C 19.257812 -17.03125 18.703125 -15.605469 18.703125 -15.605469 Z M 18.703125 -15.605469 "/></g></g></g><g fill="#000000" fill-opacity="1"><g transform="translate(268.019498, 252.179397)"><g><path d="M -7.636719 -23.855469 C -7.636719 -23.855469 -6.328125 -24.648438 -4.820312 -23.699219 L 2.390625 -19.15625 C 6.28125 -16.703125 6.890625 -14.117188 4.273438 -9.96875 C 1.675781 -5.84375 -0.902344 -5.296875 -4.796875 -7.75 L -12.007812 -12.292969 C -13.375 -13.15625 -13.375 -14.746094 -13.375 -14.746094 L -15.933594 -10.6875 C -15.933594 -10.6875 -14.613281 -11.445312 -13.132812 -10.507812 L -6.015625 -6.023438 C -0.265625 -2.402344 3.4375 -4.890625 5.980469 -8.925781 C 8.507812 -12.933594 9.15625 -17.351562 3.40625 -20.976562 L -3.710938 -25.460938 C -5.214844 -26.410156 -5.066406 -27.933594 -5.066406 -27.933594 Z M -7.636719 -23.855469 "/></g></g></g><g fill="#000000" fill-opacity="1"><g transform="translate(281.630363, 229.087533)"><g><path d="M -12.015625 -7.53125 C -14.445312 -8.300781 -14.875 -10.847656 -13.667969 -14.664062 C -12.488281 -18.398438 -10.515625 -20.1875 -7.589844 -19.265625 L -6.609375 -21.453125 C -9.222656 -22.28125 -13.515625 -21.597656 -15.523438 -15.25 C -17.472656 -9.085938 -15.367188 -6.378906 -12.652344 -5.519531 C -6.617188 -3.613281 -3.347656 -18.414062 0.179688 -17.296875 C 2.398438 -16.597656 2.691406 -14.148438 1.386719 -10.019531 C 0.296875 -6.574219 -1.433594 -4.015625 -6.003906 -5.460938 L -6.949219 -3.289062 C -1.777344 -1.652344 1.507812 -3.777344 3.292969 -9.417969 C 5.050781 -14.984375 3.53125 -18.449219 0.816406 -19.308594 C -4.671875 -21.042969 -8.019531 -6.269531 -12.015625 -7.53125 Z M -12.015625 -7.53125 "/></g></g></g><g fill="#000000" fill-opacity="1"><g transform="translate(288.464106, 205.184456)"><g><path d="M -1.035156 -14.8125 L -1.589844 -6.335938 C -1.660156 -5.269531 -2.5625 -4.476562 -3.628906 -4.546875 L -8.441406 -4.863281 L -8.023438 -11.234375 C -7.953125 -12.328125 -6.523438 -13.167969 -6.523438 -13.167969 L -11.199219 -13.472656 C -11.199219 -13.472656 -9.949219 -12.402344 -10.019531 -11.363281 L -10.4375 -4.992188 L -14.890625 -5.285156 C -15.984375 -5.359375 -16.777344 -6.289062 -16.707031 -7.355469 L -16.199219 -15.117188 C -16.132812 -16.101562 -12.878906 -18.003906 -12.878906 -18.003906 L -18.066406 -17.191406 L -19.054688 -2.097656 C -19.054688 -2.097656 -18.011719 -3.375 -16.535156 -3.28125 L -2.34375 -2.351562 C -0.648438 -2.238281 0.0820312 -0.847656 0.0820312 -0.847656 L 1.113281 -16.59375 L -4.46875 -18.113281 C -4.46875 -18.113281 -0.972656 -15.769531 -1.035156 -14.8125 Z M -1.035156 -14.8125 "/></g></g></g><g clip-path="url(#43652b5c9d)"><path fill="#000000" d="M 193.835938 201.660156 C 194.332031 195.117188 193.667969 189.320312 192.425781 184.328125 C 191.851562 182.015625 191.148438 179.871094 190.378906 177.910156 C 186.523438 168.070312 180.960938 162.753906 180.960938 162.753906 C 180.960938 162.753906 177.457031 166.105469 174.078125 172.414062 C 178.402344 176.183594 182.179688 180.578125 185.101562 185.46875 C 185.992188 186.957031 186.804688 188.492188 187.527344 190.066406 C 188.269531 191.679688 188.917969 193.335938 189.46875 195.035156 C 192.28125 203.757812 192.191406 213.519531 188.894531 222.003906 C 191.695312 215.058594 193.179688 208.644531 193.738281 202.804688 C 193.773438 202.421875 193.804688 202.039062 193.835938 201.660156 Z M 214.398438 195.203125 C 215.3125 193.066406 216.039062 190.984375 216.605469 188.996094 C 219.683594 178.25 218.238281 170.15625 218.238281 170.15625 C 218.238281 170.15625 210.738281 171.148438 201.910156 176.691406 C 203.453125 182.355469 204.109375 188.234375 203.667969 194.046875 C 203.5625 195.449219 203.394531 196.851562 203.15625 198.242188 C 203.109375 198.53125 203.058594 198.820312 203 199.113281 C 201.175781 208.652344 195.933594 217.65625 188.269531 223.515625 C 202.734375 214.914062 210.398438 204.523438 214.398438 195.203125 Z M 244.601562 199.59375 C 244.601562 199.59375 237.582031 195.523438 226.558594 194.691406 C 223.847656 201.414062 219.859375 207.582031 214.566406 212.515625 C 207.460938 219.136719 197.914062 223.308594 188.269531 223.515625 C 229.496094 228.53125 244.601562 199.59375 244.601562 199.59375 Z M 247.335938 215.628906 C 238.765625 223.882812 227.65625 229.777344 215.808594 230.878906 C 206.136719 231.777344 196.03125 229.246094 188.269531 223.515625 C 181.839844 216.691406 175.324219 212.046875 169.089844 208.949219 C 168.277344 208.542969 167.46875 208.167969 166.664062 207.8125 C 162.578125 206.015625 158.636719 204.863281 154.953125 204.171875 C 152.667969 203.738281 150.480469 203.484375 148.414062 203.363281 C 137.253906 202.699219 129.667969 205.863281 129.667969 205.863281 C 129.667969 205.863281 139.1875 231.878906 173.152344 236.285156 C 153.808594 239.957031 136.640625 229.367188 123.960938 217.269531 C 135.167969 241.089844 159.382812 257.582031 187.453125 257.582031 C 218.9375 257.582031 245.574219 236.835938 254.441406 208.265625 C 251.863281 210.921875 249.515625 213.527344 247.335938 215.628906 Z M 188.269531 223.515625 C 188.492188 223.019531 188.699219 222.511719 188.894531 222.003906 C 188.695312 222.507812 188.484375 223.011719 188.269531 223.515625 Z M 187.453125 117.324219 C 148.722656 117.324219 117.324219 148.722656 117.324219 187.453125 C 117.324219 189.464844 117.410156 191.453125 117.578125 193.417969 C 124.835938 193.617188 132.136719 192.207031 137.828125 191.792969 C 139.839844 191.644531 141.863281 191.601562 143.886719 191.65625 C 143.359375 189.859375 142.898438 188.050781 142.492188 186.242188 C 137.632812 164.617188 140.789062 143.011719 140.789062 143.011719 C 144.6875 155.21875 158.058594 161.4375 166.613281 166.859375 C 167.128906 165.199219 167.6875 163.566406 168.273438 161.96875 C 174.882812 143.914062 185.296875 130.101562 185.296875 130.101562 C 182.746094 143.242188 192.394531 155.613281 197.125 164.589844 C 197.878906 166.023438 198.578125 167.496094 199.21875 168.992188 C 200.472656 167.917969 201.753906 166.886719 203.050781 165.894531 C 220.472656 152.558594 241.011719 146.359375 241.011719 146.359375 C 231.195312 155.460938 231.683594 171.140625 230.203125 181.179688 C 229.90625 183.171875 229.511719 185.160156 229.015625 187.121094 C 230.703125 187.011719 232.386719 186.957031 234.0625 186.941406 C 242.460938 186.878906 250.628906 187.953125 257.558594 189.320312 C 257.574219 188.699219 257.582031 188.078125 257.582031 187.453125 C 257.582031 148.722656 226.183594 117.324219 187.453125 117.324219 Z M 180.332031 197.105469 C 177.132812 191.453125 173.359375 187.085938 169.644531 183.746094 C 167.621094 181.925781 165.613281 180.40625 163.726562 179.152344 C 157.554688 175.042969 152.671875 173.730469 152.671875 173.730469 C 152.671875 173.730469 150.222656 181.46875 151.808594 192.410156 C 155.785156 193.066406 159.675781 194.148438 163.371094 195.683594 C 164.925781 196.328125 166.449219 197.050781 167.925781 197.855469 C 169.257812 198.585938 170.554688 199.378906 171.8125 200.242188 C 179.820312 205.734375 185.96875 214.148438 188.269531 223.515625 C 187.324219 213.914062 184.894531 206.085938 181.726562 199.726562 C 181.273438 198.824219 180.8125 197.949219 180.332031 197.105469 " fill-opacity="1" fill-rule="nonzero"/></g></svg>